<?xml version="1.0" encoding="UTF-8" standalone="no" ?>
<svg width="48" height="48" viewBox="0 0 48 48" fill="none" xmlns="http://www.w3.org/2000/svg">
    <rect width="48" height="48" rx="4" fill="#34BECD"/>
    <mask id="mask0" mask-type="alpha" maskUnits="userSpaceOnUse" x="0" y="0" width="48" height="48">
    <rect width="48" height="48" rx="4" fill="white"/>
    </mask>
    <g mask="url(#mask0)">
    <path d="M21.6311 21.9105H12.2416C11.6848 21.9105 11.1965 22.3982 11.1965 22.9556V30.9673H8.04508C7.4877 30.9673 7 31.455 7 32.0124V39.6763C7 40.2337 7.4877 40.7214 8.04508 40.7214H18.4959C19.0533 40.7214 19.541 40.2337 19.541 39.6763V32.0124C19.541 31.455 19.0533 30.9673 18.4959 30.9673H15.3512V26.0908H32.092V30.9673H28.9634C28.4055 30.9673 27.9184 31.455 27.9184 32.0124V39.6763C27.9184 40.2337 28.4055 40.7214 28.9634 40.7214H39.4143C39.9716 40.7214 40.4593 40.2337 40.4593 39.6763V32.0124C40.4593 31.455 39.9716 30.9673 39.4143 30.9673H36.2567V22.9556C36.2567 22.3982 35.7696 21.9105 35.2116 21.9105H25.8115V17.0329H28.9384C29.4957 17.0329 29.9834 16.5452 29.9834 15.9878V8.32389C29.9834 7.76651 29.4957 7.27881 28.9384 7.27881H18.4875C17.9296 7.27881 17.4425 7.76651 17.4425 8.32389V15.9878C17.4425 16.5452 17.9296 17.0329 18.4875 17.0329H21.6311V21.9105Z" fill="white"/>
    </g>
</svg>