<?xml version="1.0" encoding="UTF-8" standalone="no" ?>
<svg width="48" height="48" viewBox="0 0 48 48" fill="none" xmlns="http://www.w3.org/2000/svg">
    <rect width="48" height="48" rx="4" fill="#000066"></rect>
    <path d="M25.5148 7.00028C25.6677 6.99838 25.8194 7.0264 25.961 7.08268C26.1027 7.13896 26.2313 7.22237 26.3394 7.32799C26.4475 7.43361 26.5329 7.5593 26.5905 7.69766C26.6481 7.83602 26.6768 7.98425 26.6748 8.13361V16.0669C26.6407 16.466 26.6961 16.8675 26.8371 17.2436C26.9781 17.6197 27.2012 17.9612 27.4911 18.2444C27.7809 18.5275 28.1305 18.7456 28.5154 18.8833C28.9003 19.0211 29.3113 19.0752 29.7198 19.0419H37.8397C37.9926 19.0399 38.1443 19.068 38.2859 19.1242C38.4275 19.1805 38.5562 19.2639 38.6643 19.3696C38.7724 19.4752 38.8578 19.6009 38.9154 19.7392C38.973 19.8776 39.0017 20.0258 38.9997 20.1752V37.6C38.9866 38.4978 38.6157 39.3551 37.9659 39.99C37.3161 40.6249 36.4386 40.9872 35.5197 41H13.48C12.5611 40.9872 11.6836 40.6249 11.0338 39.99C10.384 39.3551 10.0131 38.4978 10 37.6V10.4003C10.0131 9.50252 10.384 8.64515 11.0338 8.01028C11.6836 7.37542 12.5611 7.0131 13.48 7.00028H25.5148ZM31.8875 34.3842H25.0798C24.901 34.3842 24.7295 34.4536 24.6031 34.5772C24.4766 34.7007 24.4056 34.8683 24.4056 35.043V36.92C24.4056 37.0947 24.4766 37.2623 24.6031 37.3858C24.7295 37.5094 24.901 37.5788 25.0798 37.5788H31.8875C32.0664 37.5788 32.2378 37.5094 32.3643 37.3858C32.4907 37.2623 32.5618 37.0947 32.5618 36.92V35.043C32.5618 34.8683 32.4907 34.7007 32.3643 34.5772C32.2378 34.4536 32.0664 34.3842 31.8875 34.3842ZM31.8875 26.7414H17.0542C16.8754 26.7414 16.7039 26.8108 16.5774 26.9343C16.451 27.0578 16.3799 27.2254 16.3799 27.4001V31.8767C16.3799 32.0515 16.451 32.219 16.5774 32.3425C16.7039 32.4661 16.8754 32.5355 17.0542 32.5355H31.8875C32.0664 32.5355 32.2378 32.4661 32.3643 32.3425C32.4907 32.219 32.5618 32.0515 32.5618 31.8767V27.4001C32.5618 27.2254 32.4907 27.0578 32.3643 26.9343C32.2378 26.8108 32.0664 26.7414 31.8875 26.7414ZM23.8619 21.7335H17.0542C16.8754 21.7335 16.7039 21.8029 16.5774 21.9264C16.451 22.05 16.3799 22.2175 16.3799 22.3922V24.2693C16.3799 24.444 16.451 24.6116 16.5774 24.7351C16.7039 24.8586 16.8754 24.9281 17.0542 24.9281H23.8619C24.0407 24.9281 24.2122 24.8586 24.3386 24.7351C24.4651 24.6116 24.5361 24.444 24.5361 24.2693V22.3922C24.5361 22.2175 24.4651 22.05 24.3386 21.9264C24.2122 21.8029 24.0407 21.7335 23.8619 21.7335ZM30.4448 7.00028C30.681 6.99477 30.9117 7.06992 31.0973 7.21278L38.7822 14.7211C38.9284 14.9023 39.0054 15.1278 38.9997 15.3585C39.0005 15.5722 38.9188 15.7783 38.771 15.9359C38.6233 16.0934 38.4202 16.1907 38.2022 16.2085H32.0398C31.3918 16.1907 30.7754 15.9312 30.317 15.4834C29.8586 15.0356 29.5931 14.4333 29.5748 13.8002V7.77944C29.593 7.56651 29.6927 7.36809 29.8539 7.2237C30.0151 7.07931 30.2261 6.99954 30.4448 7.00028Z" fill="white"></path>
</svg>